<svg xmlns="http://www.w3.org/2000/svg" xmlns:xlink="http://www.w3.org/1999/xlink" width="960" height="559.33"><rect width="960" height="559.33" rx="5" ry="5" class="a"/><svg y="0%" x="0%"><circle cx="20" cy="20" r="6" fill="#ff5f58"/><circle cx="40" cy="20" r="6" fill="#ffbd2e"/><circle cx="60" cy="20" r="6" fill="#18c132"/></svg><svg height="499.33" viewBox="0 0 92 49.933" width="920" x="15" xmlns="http://www.w3.org/2000/svg" xmlns:xlink="http://www.w3.org/1999/xlink" y="50"><style>@keyframes m{0%{transform:translateX(0)}2.09%{transform:translateX(-184px)}2.11%{transform:translateX(-368px)}7.82%{transform:translateX(-460px)}8.61%{transform:translateX(-552px)}10.93%{transform:translateX(-644px)}11.66%{transform:translateX(-736px)}12.75%{transform:translateX(-828px)}13.46%{transform:translateX(-920px)}14.23%{transform:translateX(-1012px)}14.7%{transform:translateX(-1104px)}15.42%{transform:translateX(-1196px)}16.14%{transform:translateX(-1288px)}16.94%{transform:translateX(-1380px)}17.64%{transform:translateX(-1472px)}18.34%{transform:translateX(-1564px)}18.84%{transform:translateX(-1656px)}19.56%{transform:translateX(-1748px)}20.41%{transform:translateX(-1840px)}21.47%{transform:translateX(-1932px)}23.37%{transform:translateX(-2024px)}24.26%{transform:translateX(-2116px)}25.36%{transform:translateX(-2208px)}25.91%{transform:translateX(-2300px)}26.46%{transform:translateX(-2392px)}26.75%{transform:translateX(-2484px)}27.61%{transform:translateX(-2576px)}28.37%{transform:translateX(-2668px)}30.39%{transform:translateX(-2760px)}31.53%{transform:translateX(-2852px)}32.13%{transform:translateX(-2944px)}33.9%{transform:translateX(-3036px)}34.92%{transform:translateX(-3128px)}37.46%{transform:translateX(-3220px)}38.34%{transform:translateX(-3312px)}38.81%{transform:translateX(-3404px)}40.37%{transform:translateX(-3496px)}41.73%{transform:translateX(-3588px)}42.28%{transform:translateX(-3680px)}43.42%{transform:translateX(-3772px)}44.9%{transform:translateX(-3864px)}47.73%{transform:translateX(-3956px)}48.33%{transform:translateX(-4048px)}49.38%{transform:translateX(-4140px)}50.15%{transform:translateX(-4232px)}51.29%{transform:translateX(-4324px)}52.64%{transform:translateX(-4416px)}53.36%{transform:translateX(-4508px)}54.16%{transform:translateX(-4600px)}56.7%{transform:translateX(-4692px)}59.16%{transform:translateX(-4784px)}59.96%{transform:translateX(-4876px)}61.27%{transform:translateX(-4968px)}61.99%{transform:translateX(-5060px)}63.51%{transform:translateX(-5152px)}65.08%{transform:translateX(-5244px)}66.01%{transform:translateX(-5336px)}68.93%{transform:translateX(-5428px)}72.01%{transform:translateX(-5520px)}74.72%{transform:translateX(-5612px)}76.92%{transform:translateX(-5704px)}78.53%{transform:translateX(-5888px)}78.54%{transform:translateX(-5980px)}80.96%{transform:translateX(-6072px)}80.97%{transform:translateX(-6164px)}81.23%{transform:translateX(-6256px)}81.49%{transform:translateX(-6348px)}81.76%{transform:translateX(-6440px)}82.03%{transform:translateX(-6532px)}82.29%{transform:translateX(-6624px)}82.56%{transform:translateX(-6716px)}82.82%{transform:translateX(-6808px)}83.08%{transform:translateX(-6900px)}83.18%{transform:translateX(-6992px)}83.3%{transform:translateX(-7084px)}83.36%{transform:translateX(-7176px)}83.43%{transform:translateX(-7268px)}83.45%{transform:translateX(-7360px)}to{transform:translateX(-7452px)}}.a{fill:#282d35}.f{fill:#b9c0cb;white-space:pre}.g{fill:#71bef2}.h,.i,.j{white-space:pre}.i,.j{fill:#71bef2}.j{fill:#b9bfca;font-weight:700}</style><g font-family="Monaco,Consolas,Menlo,'Bitstream Vera Sans Mono','Powerline Symbols',monospace" font-size="1.67"><defs><symbol id="1"><text y="1.67" class="f">~</text></symbol><symbol id="2"><path class="g" d="M0 0h3v2.171H0z"/><text y="1.67" class="h">~</text><text x="3.006" y="1.67" class="i"></text></symbol><symbol id="3"><path class="g" d="M0 0h3v2.171H0z"/><text y="1.67" class="h">~</text><text x="3.006" y="1.67" class="i"></text><text x="5.01" y="1.67" class="f">npx</text></symbol><symbol id="4"><path class="g" d="M0 0h3v2.171H0z"/><text y="1.67" class="h">~</text><text x="3.006" y="1.67" class="i"></text><text x="5.01" y="1.67" class="f">npx</text><text x="9.018" y="1.67" class="f">moment-guess</text></symbol><symbol id="5"><path class="g" d="M0 0h3v2.171H0z"/><text y="1.67" class="h">~</text><text x="3.006" y="1.67" class="i"></text><text x="5.01" y="1.67" class="f">npx</text><text x="9.018" y="1.67" class="f">moment-guess</text><text x="22.044" y="1.67" class="f">--date</text></symbol><symbol id="6"><path class="g" d="M0 0h3v2.171H0z"/><text y="1.67" class="h">~</text><text x="3.006" y="1.67" class="i"></text><text x="5.01" y="1.67" class="f">npx</text><text x="9.018" y="1.67" class="f">moment-guess</text><text x="22.044" y="1.67" class="f">--date</text><text x="29.058" y="1.67" class="f">&apos;Fri,</text></symbol><symbol id="7"><path class="g" d="M0 0h3v2.171H0z"/><text y="1.67" class="h">~</text><text x="3.006" y="1.67" class="i"></text><text x="5.01" y="1.67" class="f">npx</text><text x="9.018" y="1.67" class="f">moment-guess</text><text x="22.044" y="1.67" class="f">--date</text><text x="29.058" y="1.67" class="f">&apos;Fri,</text><text x="35.07" y="1.67" class="f">January</text></symbol><symbol id="8"><path class="g" d="M0 0h3v2.171H0z"/><text y="1.67" class="h">~</text><text x="3.006" y="1.67" class="i"></text><text x="5.01" y="1.67" class="f">npx</text><text x="9.018" y="1.67" class="f">moment-guess</text><text x="22.044" y="1.67" class="f">--date</text><text x="29.058" y="1.67" class="f">&apos;Fri,</text><text x="35.07" y="1.67" class="f">January</text><text x="43.086" y="1.67" class="f">30th</text></symbol><symbol id="9"><path class="g" d="M0 0h3v2.171H0z"/><text y="1.67" class="h">~</text><text x="3.006" y="1.67" class="i"></text><text x="5.01" y="1.67" class="f">npx</text><text x="9.018" y="1.67" class="f">moment-guess</text><text x="22.044" y="1.67" class="f">--date</text><text x="29.058" y="1.67" class="f">&apos;Fri,</text><text x="35.07" y="1.67" class="f">January</text><text x="43.086" y="1.67" class="f">30th</text><text x="48.096" y="1.67" class="f">2020,</text></symbol><symbol id="10"><path class="g" d="M0 0h3v2.171H0z"/><text y="1.67" class="h">~</text><text x="3.006" y="1.67" class="i"></text><text x="5.01" y="1.67" class="f">npx</text><text x="9.018" y="1.67" class="f">moment-guess</text><text x="22.044" y="1.67" class="f">--date</text><text x="29.058" y="1.67" class="f">&apos;Fri,</text><text x="35.07" y="1.67" class="f">January</text><text x="43.086" y="1.67" class="f">30th</text><text x="48.096" y="1.67" class="f">2020,</text><text x="54.108" y="1.67" class="f">10:00</text></symbol><symbol id="11"><path class="g" d="M0 0h3v2.171H0z"/><text y="1.67" class="h">~</text><text x="3.006" y="1.67" class="i"></text><text x="5.01" y="1.67" class="f">npx</text><text x="9.018" y="1.67" class="f">moment-guess</text><text x="22.044" y="1.67" class="f">--date</text><text x="29.058" y="1.67" class="f">&apos;Fri,</text><text x="35.07" y="1.67" class="f">January</text><text x="43.086" y="1.67" class="f">30th</text><text x="48.096" y="1.67" class="f">2020,</text><text x="54.108" y="1.67" class="f">10:00</text><text x="60.12" y="1.67" class="f">AM&apos;</text></symbol><symbol id="12"><text y="1.67" class="f">npx</text></symbol><symbol id="13"><text y="1.67" class="f">npx:</text><text x="5.01" y="1.67" class="f">installed</text><text x="15.03" y="1.67" class="f">9</text><text x="17.034" y="1.67" class="f">in</text><text x="20.04" y="1.67" class="f">0.873s</text></symbol><symbol id="14"><text y="1.67" class="j">ddd,</text><text x="5.01" y="1.67" class="j">MMMM</text><text x="10.02" y="1.67" class="j">Do</text><text x="13.026" y="1.67" class="j">YYYY,</text><text x="19.038" y="1.67" class="j">hh:mm</text><text x="25.05" y="1.67" class="j">A</text></symbol><symbol id="a"><path fill="transparent" d="M0 0h92v23H0z"/></symbol><symbol id="b"><path fill="#6f7683" d="M0 0h1.102v2.171H0z"/></symbol></defs><path class="a" d="M0 0h92v49.933H0z"/><g style="animation-duration:18.913076s;animation-iteration-count:infinite;animation-name:m;animation-timing-function:steps(1,end)"><svg width="7544"><svg><use xlink:href="#a"/><use xlink:href="#b" x="-.004"/></svg><svg x="92"><use xlink:href="#a"/><use xlink:href="#b" x="-.004"/></svg><svg x="184"><use xlink:href="#a"/><use xlink:href="#b" x=".996"/><use xlink:href="#1"/></svg><svg x="276"><use xlink:href="#a"/><use xlink:href="#b" x="4.996"/><use xlink:href="#2"/></svg><svg x="368"><use xlink:href="#a"/><use xlink:href="#b" x="4.996"/><use xlink:href="#2"/></svg><svg x="460"><use xlink:href="#a"/><use xlink:href="#b" x="5.996"/><path class="g" d="M0 0h3v2.171H0z"/><text y="1.67" class="h">~</text><text x="3.006" y="1.67" class="i"></text><text x="5.01" y="1.67" class="f">n</text></svg><svg x="552"><use xlink:href="#a"/><use xlink:href="#b" x="6.996"/><path class="g" d="M0 0h3v2.171H0z"/><text y="1.67" class="h">~</text><text x="3.006" y="1.67" class="i"></text><text x="5.01" y="1.67" class="f">np</text></svg><svg x="644"><use xlink:href="#a"/><use xlink:href="#b" x="7.996"/><use xlink:href="#3"/></svg><svg x="736"><use xlink:href="#a"/><use xlink:href="#b" x="8.996"/><use xlink:href="#3"/></svg><svg x="828"><use xlink:href="#a"/><use xlink:href="#b" x="9.996"/><path class="g" d="M0 0h3v2.171H0z"/><text y="1.67" class="h">~</text><text x="3.006" y="1.67" class="i"></text><text x="5.01" y="1.67" class="f">npx</text><text x="9.018" y="1.67" class="f">m</text></svg><svg x="920"><use xlink:href="#a"/><use xlink:href="#b" x="10.996"/><path class="g" d="M0 0h3v2.171H0z"/><text y="1.67" class="h">~</text><text x="3.006" y="1.67" class="i"></text><text x="5.01" y="1.67" class="f">npx</text><text x="9.018" y="1.67" class="f">mo</text></svg><svg x="1012"><use xlink:href="#a"/><use xlink:href="#b" x="11.996"/><path class="g" d="M0 0h3v2.171H0z"/><text y="1.67" class="h">~</text><text x="3.006" y="1.67" class="i"></text><text x="5.01" y="1.67" class="f">npx</text><text x="9.018" y="1.67" class="f">mom</text></svg><svg x="1104"><use xlink:href="#a"/><use xlink:href="#b" x="12.996"/><path class="g" d="M0 0h3v2.171H0z"/><text y="1.67" class="h">~</text><text x="3.006" y="1.67" class="i"></text><text x="5.01" y="1.67" class="f">npx</text><text x="9.018" y="1.67" class="f">mome</text></svg><svg x="1196"><use xlink:href="#a"/><use xlink:href="#b" x="13.996"/><path class="g" d="M0 0h3v2.171H0z"/><text y="1.67" class="h">~</text><text x="3.006" y="1.67" class="i"></text><text x="5.01" y="1.67" class="f">npx</text><text x="9.018" y="1.67" class="f">momen</text></svg><svg x="1288"><use xlink:href="#a"/><use xlink:href="#b" x="14.996"/><path class="g" d="M0 0h3v2.171H0z"/><text y="1.67" class="h">~</text><text x="3.006" y="1.67" class="i"></text><text x="5.01" y="1.67" class="f">npx</text><text x="9.018" y="1.67" class="f">moment</text></svg><svg x="1380"><use xlink:href="#a"/><use xlink:href="#b" x="15.996"/><path class="g" d="M0 0h3v2.171H0z"/><text y="1.67" class="h">~</text><text x="3.006" y="1.67" class="i"></text><text x="5.01" y="1.67" class="f">npx</text><text x="9.018" y="1.67" class="f">moment-</text></svg><svg x="1472"><use xlink:href="#a"/><use xlink:href="#b" x="16.996"/><path class="g" d="M0 0h3v2.171H0z"/><text y="1.67" class="h">~</text><text x="3.006" y="1.67" class="i"></text><text x="5.01" y="1.67" class="f">npx</text><text x="9.018" y="1.67" class="f">moment-g</text></svg><svg x="1564"><use xlink:href="#a"/><use xlink:href="#b" x="17.996"/><path class="g" d="M0 0h3v2.171H0z"/><text y="1.67" class="h">~</text><text x="3.006" y="1.67" class="i"></text><text x="5.01" y="1.67" class="f">npx</text><text x="9.018" y="1.67" class="f">moment-gu</text></svg><svg x="1656"><use xlink:href="#a"/><use xlink:href="#b" x="18.996"/><path class="g" d="M0 0h3v2.171H0z"/><text y="1.67" class="h">~</text><text x="3.006" y="1.67" class="i"></text><text x="5.01" y="1.67" class="f">npx</text><text x="9.018" y="1.67" class="f">moment-gue</text></svg><svg x="1748"><use xlink:href="#a"/><use xlink:href="#b" x="19.996"/><path class="g" d="M0 0h3v2.171H0z"/><text y="1.67" class="h">~</text><text x="3.006" y="1.67" class="i"></text><text x="5.01" y="1.67" class="f">npx</text><text x="9.018" y="1.67" class="f">moment-gues</text></svg><svg x="1840"><use xlink:href="#a"/><use xlink:href="#b" x="20.996"/><use xlink:href="#4"/></svg><svg x="1932"><use xlink:href="#a"/><use xlink:href="#b" x="21.996"/><use xlink:href="#4"/></svg><svg x="2024"><use xlink:href="#a"/><use xlink:href="#b" x="22.996"/><path class="g" d="M0 0h3v2.171H0z"/><text y="1.67" class="h">~</text><text x="3.006" y="1.67" class="i"></text><text x="5.01" y="1.67" class="f">npx</text><text x="9.018" y="1.67" class="f">moment-guess</text><text x="22.044" y="1.67" class="f">-</text></svg><svg x="2116"><use xlink:href="#a"/><use xlink:href="#b" x="23.996"/><path class="g" d="M0 0h3v2.171H0z"/><text y="1.67" class="h">~</text><text x="3.006" y="1.67" class="i"></text><text x="5.01" y="1.67" class="f">npx</text><text x="9.018" y="1.67" class="f">moment-guess</text><text x="22.044" y="1.67" class="f">--</text></svg><svg x="2208"><use xlink:href="#a"/><use xlink:href="#b" x="24.996"/><path class="g" d="M0 0h3v2.171H0z"/><text y="1.67" class="h">~</text><text x="3.006" y="1.67" class="i"></text><text x="5.01" y="1.67" class="f">npx</text><text x="9.018" y="1.67" class="f">moment-guess</text><text x="22.044" y="1.67" class="f">--d</text></svg><svg x="2300"><use xlink:href="#a"/><use xlink:href="#b" x="25.996"/><path class="g" d="M0 0h3v2.171H0z"/><text y="1.67" class="h">~</text><text x="3.006" y="1.67" class="i"></text><text x="5.01" y="1.67" class="f">npx</text><text x="9.018" y="1.67" class="f">moment-guess</text><text x="22.044" y="1.67" class="f">--da</text></svg><svg x="2392"><use xlink:href="#a"/><use xlink:href="#b" x="26.996"/><path class="g" d="M0 0h3v2.171H0z"/><text y="1.67" class="h">~</text><text x="3.006" y="1.67" class="i"></text><text x="5.01" y="1.67" class="f">npx</text><text x="9.018" y="1.67" class="f">moment-guess</text><text x="22.044" y="1.67" class="f">--dat</text></svg><svg x="2484"><use xlink:href="#a"/><use xlink:href="#b" x="27.996"/><use xlink:href="#5"/></svg><svg x="2576"><use xlink:href="#a"/><use xlink:href="#b" x="28.996"/><use xlink:href="#5"/></svg><svg x="2668"><use xlink:href="#a"/><use xlink:href="#b" x="29.996"/><path class="g" d="M0 0h3v2.171H0z"/><text y="1.67" class="h">~</text><text x="3.006" y="1.67" class="i"></text><text x="5.01" y="1.67" class="f">npx</text><text x="9.018" y="1.67" class="f">moment-guess</text><text x="22.044" y="1.67" class="f">--date</text><text x="29.058" y="1.67" class="f">&apos;</text></svg><svg x="2760"><use xlink:href="#a"/><use xlink:href="#b" x="30.996"/><path class="g" d="M0 0h3v2.171H0z"/><text y="1.67" class="h">~</text><text x="3.006" y="1.67" class="i"></text><text x="5.01" y="1.67" class="f">npx</text><text x="9.018" y="1.67" class="f">moment-guess</text><text x="22.044" y="1.67" class="f">--date</text><text x="29.058" y="1.67" class="f">&apos;F</text></svg><svg x="2852"><use xlink:href="#a"/><use xlink:href="#b" x="31.996"/><path class="g" d="M0 0h3v2.171H0z"/><text y="1.67" class="h">~</text><text x="3.006" y="1.67" class="i"></text><text x="5.01" y="1.67" class="f">npx</text><text x="9.018" y="1.67" class="f">moment-guess</text><text x="22.044" y="1.67" class="f">--date</text><text x="29.058" y="1.67" class="f">&apos;Fr</text></svg><svg x="2944"><use xlink:href="#a"/><use xlink:href="#b" x="32.996"/><path class="g" d="M0 0h3v2.171H0z"/><text y="1.67" class="h">~</text><text x="3.006" y="1.67" class="i"></text><text x="5.01" y="1.67" class="f">npx</text><text x="9.018" y="1.67" class="f">moment-guess</text><text x="22.044" y="1.67" class="f">--date</text><text x="29.058" y="1.67" class="f">&apos;Fri</text></svg><svg x="3036"><use xlink:href="#a"/><use xlink:href="#b" x="33.996"/><use xlink:href="#6"/></svg><svg x="3128"><use xlink:href="#a"/><use xlink:href="#b" x="34.996"/><use xlink:href="#6"/></svg><svg x="3220"><use xlink:href="#a"/><use xlink:href="#b" x="35.996"/><path class="g" d="M0 0h3v2.171H0z"/><text y="1.67" class="h">~</text><text x="3.006" y="1.67" class="i"></text><text x="5.01" y="1.67" class="f">npx</text><text x="9.018" y="1.67" class="f">moment-guess</text><text x="22.044" y="1.67" class="f">--date</text><text x="29.058" y="1.67" class="f">&apos;Fri,</text><text x="35.07" y="1.67" class="f">J</text></svg><svg x="3312"><use xlink:href="#a"/><use xlink:href="#b" x="36.996"/><path class="g" d="M0 0h3v2.171H0z"/><text y="1.67" class="h">~</text><text x="3.006" y="1.67" class="i"></text><text x="5.01" y="1.67" class="f">npx</text><text x="9.018" y="1.67" class="f">moment-guess</text><text x="22.044" y="1.67" class="f">--date</text><text x="29.058" y="1.67" class="f">&apos;Fri,</text><text x="35.07" y="1.67" class="f">Ja</text></svg><svg x="3404"><use xlink:href="#a"/><use xlink:href="#b" x="37.996"/><path class="g" d="M0 0h3v2.171H0z"/><text y="1.67" class="h">~</text><text x="3.006" y="1.67" class="i"></text><text x="5.01" y="1.67" class="f">npx</text><text x="9.018" y="1.67" class="f">moment-guess</text><text x="22.044" y="1.67" class="f">--date</text><text x="29.058" y="1.67" class="f">&apos;Fri,</text><text x="35.07" y="1.67" class="f">Jan</text></svg><svg x="3496"><use xlink:href="#a"/><use xlink:href="#b" x="38.996"/><path class="g" d="M0 0h3v2.171H0z"/><text y="1.67" class="h">~</text><text x="3.006" y="1.67" class="i"></text><text x="5.01" y="1.67" class="f">npx</text><text x="9.018" y="1.67" class="f">moment-guess</text><text x="22.044" y="1.67" class="f">--date</text><text x="29.058" y="1.67" class="f">&apos;Fri,</text><text x="35.07" y="1.67" class="f">Janu</text></svg><svg x="3588"><use xlink:href="#a"/><use xlink:href="#b" x="39.996"/><path class="g" d="M0 0h3v2.171H0z"/><text y="1.67" class="h">~</text><text x="3.006" y="1.67" class="i"></text><text x="5.01" y="1.67" class="f">npx</text><text x="9.018" y="1.67" class="f">moment-guess</text><text x="22.044" y="1.67" class="f">--date</text><text x="29.058" y="1.67" class="f">&apos;Fri,</text><text x="35.07" y="1.67" class="f">Janua</text></svg><svg x="3680"><use xlink:href="#a"/><use xlink:href="#b" x="40.996"/><path class="g" d="M0 0h3v2.171H0z"/><text y="1.67" class="h">~</text><text x="3.006" y="1.67" class="i"></text><text x="5.01" y="1.67" class="f">npx</text><text x="9.018" y="1.67" class="f">moment-guess</text><text x="22.044" y="1.67" class="f">--date</text><text x="29.058" y="1.67" class="f">&apos;Fri,</text><text x="35.07" y="1.67" class="f">Januar</text></svg><svg x="3772"><use xlink:href="#a"/><use xlink:href="#b" x="41.996"/><use xlink:href="#7"/></svg><svg x="3864"><use xlink:href="#a"/><use xlink:href="#b" x="42.996"/><use xlink:href="#7"/></svg><svg x="3956"><use xlink:href="#a"/><use xlink:href="#b" x="43.996"/><path class="g" d="M0 0h3v2.171H0z"/><text y="1.67" class="h">~</text><text x="3.006" y="1.67" class="i"></text><text x="5.01" y="1.67" class="f">npx</text><text x="9.018" y="1.67" class="f">moment-guess</text><text x="22.044" y="1.67" class="f">--date</text><text x="29.058" y="1.67" class="f">&apos;Fri,</text><text x="35.07" y="1.67" class="f">January</text><text x="43.086" y="1.67" class="f">3</text></svg><svg x="4048"><use xlink:href="#a"/><use xlink:href="#b" x="44.996"/><path class="g" d="M0 0h3v2.171H0z"/><text y="1.67" class="h">~</text><text x="3.006" y="1.67" class="i"></text><text x="5.01" y="1.67" class="f">npx</text><text x="9.018" y="1.67" class="f">moment-guess</text><text x="22.044" y="1.67" class="f">--date</text><text x="29.058" y="1.67" class="f">&apos;Fri,</text><text x="35.07" y="1.67" class="f">January</text><text x="43.086" y="1.67" class="f">30</text></svg><svg x="4140"><use xlink:href="#a"/><use xlink:href="#b" x="45.996"/><path class="g" d="M0 0h3v2.171H0z"/><text y="1.67" class="h">~</text><text x="3.006" y="1.67" class="i"></text><text x="5.01" y="1.67" class="f">npx</text><text x="9.018" y="1.67" class="f">moment-guess</text><text x="22.044" y="1.67" class="f">--date</text><text x="29.058" y="1.67" class="f">&apos;Fri,</text><text x="35.07" y="1.67" class="f">January</text><text x="43.086" y="1.67" class="f">30t</text></svg><svg x="4232"><use xlink:href="#a"/><use xlink:href="#b" x="46.996"/><use xlink:href="#8"/></svg><svg x="4324"><use xlink:href="#a"/><use xlink:href="#b" x="47.996"/><use xlink:href="#8"/></svg><svg x="4416"><use xlink:href="#a"/><use xlink:href="#b" x="48.996"/><path class="g" d="M0 0h3v2.171H0z"/><text y="1.67" class="h">~</text><text x="3.006" y="1.67" class="i"></text><text x="5.01" y="1.67" class="f">npx</text><text x="9.018" y="1.67" class="f">moment-guess</text><text x="22.044" y="1.67" class="f">--date</text><text x="29.058" y="1.67" class="f">&apos;Fri,</text><text x="35.07" y="1.67" class="f">January</text><text x="43.086" y="1.67" class="f">30th</text><text x="48.096" y="1.67" class="f">2</text></svg><svg x="4508"><use xlink:href="#a"/><use xlink:href="#b" x="49.996"/><path class="g" d="M0 0h3v2.171H0z"/><text y="1.67" class="h">~</text><text x="3.006" y="1.67" class="i"></text><text x="5.01" y="1.67" class="f">npx</text><text x="9.018" y="1.67" class="f">moment-guess</text><text x="22.044" y="1.67" class="f">--date</text><text x="29.058" y="1.67" class="f">&apos;Fri,</text><text x="35.07" y="1.67" class="f">January</text><text x="43.086" y="1.67" class="f">30th</text><text x="48.096" y="1.67" class="f">20</text></svg><svg x="4600"><use xlink:href="#a"/><use xlink:href="#b" x="50.996"/><path class="g" d="M0 0h3v2.171H0z"/><text y="1.67" class="h">~</text><text x="3.006" y="1.67" class="i"></text><text x="5.01" y="1.67" class="f">npx</text><text x="9.018" y="1.67" class="f">moment-guess</text><text x="22.044" y="1.67" class="f">--date</text><text x="29.058" y="1.67" class="f">&apos;Fri,</text><text x="35.07" y="1.67" class="f">January</text><text x="43.086" y="1.67" class="f">30th</text><text x="48.096" y="1.67" class="f">202</text></svg><svg x="4692"><use xlink:href="#a"/><use xlink:href="#b" x="51.996"/><path class="g" d="M0 0h3v2.171H0z"/><text y="1.67" class="h">~</text><text x="3.006" y="1.67" class="i"></text><text x="5.01" y="1.67" class="f">npx</text><text x="9.018" y="1.67" class="f">moment-guess</text><text x="22.044" y="1.67" class="f">--date</text><text x="29.058" y="1.67" class="f">&apos;Fri,</text><text x="35.07" y="1.67" class="f">January</text><text x="43.086" y="1.67" class="f">30th</text><text x="48.096" y="1.67" class="f">2020</text></svg><svg x="4784"><use xlink:href="#a"/><use xlink:href="#b" x="52.996"/><use xlink:href="#9"/></svg><svg x="4876"><use xlink:href="#a"/><use xlink:href="#b" x="53.996"/><use xlink:href="#9"/></svg><svg x="4968"><use xlink:href="#a"/><use xlink:href="#b" x="54.996"/><path class="g" d="M0 0h3v2.171H0z"/><text y="1.67" class="h">~</text><text x="3.006" y="1.67" class="i"></text><text x="5.01" y="1.67" class="f">npx</text><text x="9.018" y="1.67" class="f">moment-guess</text><text x="22.044" y="1.67" class="f">--date</text><text x="29.058" y="1.67" class="f">&apos;Fri,</text><text x="35.07" y="1.67" class="f">January</text><text x="43.086" y="1.67" class="f">30th</text><text x="48.096" y="1.67" class="f">2020,</text><text x="54.108" y="1.67" class="f">1</text></svg><svg x="5060"><use xlink:href="#a"/><use xlink:href="#b" x="55.996"/><path class="g" d="M0 0h3v2.171H0z"/><text y="1.67" class="h">~</text><text x="3.006" y="1.67" class="i"></text><text x="5.01" y="1.67" class="f">npx</text><text x="9.018" y="1.67" class="f">moment-guess</text><text x="22.044" y="1.67" class="f">--date</text><text x="29.058" y="1.67" class="f">&apos;Fri,</text><text x="35.07" y="1.67" class="f">January</text><text x="43.086" y="1.67" class="f">30th</text><text x="48.096" y="1.67" class="f">2020,</text><text x="54.108" y="1.67" class="f">10</text></svg><svg x="5152"><use xlink:href="#a"/><use xlink:href="#b" x="56.996"/><path class="g" d="M0 0h3v2.171H0z"/><text y="1.67" class="h">~</text><text x="3.006" y="1.67" class="i"></text><text x="5.01" y="1.67" class="f">npx</text><text x="9.018" y="1.67" class="f">moment-guess</text><text x="22.044" y="1.67" class="f">--date</text><text x="29.058" y="1.67" class="f">&apos;Fri,</text><text x="35.07" y="1.67" class="f">January</text><text x="43.086" y="1.67" class="f">30th</text><text x="48.096" y="1.67" class="f">2020,</text><text x="54.108" y="1.67" class="f">10:</text></svg><svg x="5244"><use xlink:href="#a"/><use xlink:href="#b" x="57.996"/><path class="g" d="M0 0h3v2.171H0z"/><text y="1.67" class="h">~</text><text x="3.006" y="1.67" class="i"></text><text x="5.01" y="1.67" class="f">npx</text><text x="9.018" y="1.67" class="f">moment-guess</text><text x="22.044" y="1.67" class="f">--date</text><text x="29.058" y="1.67" class="f">&apos;Fri,</text><text x="35.07" y="1.67" class="f">January</text><text x="43.086" y="1.67" class="f">30th</text><text x="48.096" y="1.67" class="f">2020,</text><text x="54.108" y="1.67" class="f">10:0</text></svg><svg x="5336"><use xlink:href="#a"/><use xlink:href="#b" x="58.996"/><use xlink:href="#10"/></svg><svg x="5428"><use xlink:href="#a"/><use xlink:href="#b" x="59.996"/><use xlink:href="#10"/></svg><svg x="5520"><use xlink:href="#a"/><use xlink:href="#b" x="60.996"/><path class="g" d="M0 0h3v2.171H0z"/><text y="1.67" class="h">~</text><text x="3.006" y="1.67" class="i"></text><text x="5.01" y="1.67" class="f">npx</text><text x="9.018" y="1.67" class="f">moment-guess</text><text x="22.044" y="1.67" class="f">--date</text><text x="29.058" y="1.67" class="f">&apos;Fri,</text><text x="35.07" y="1.67" class="f">January</text><text x="43.086" y="1.67" class="f">30th</text><text x="48.096" y="1.67" class="f">2020,</text><text x="54.108" y="1.67" class="f">10:00</text><text x="60.12" y="1.67" class="f">A</text></svg><svg x="5612"><use xlink:href="#a"/><use xlink:href="#b" x="61.996"/><path class="g" d="M0 0h3v2.171H0z"/><text y="1.67" class="h">~</text><text x="3.006" y="1.67" class="i"></text><text x="5.01" y="1.67" class="f">npx</text><text x="9.018" y="1.67" class="f">moment-guess</text><text x="22.044" y="1.67" class="f">--date</text><text x="29.058" y="1.67" class="f">&apos;Fri,</text><text x="35.07" y="1.67" class="f">January</text><text x="43.086" y="1.67" class="f">30th</text><text x="48.096" y="1.67" class="f">2020,</text><text x="54.108" y="1.67" class="f">10:00</text><text x="60.12" y="1.67" class="f">AM</text></svg><svg x="5704"><use xlink:href="#a"/><use xlink:href="#b" x="62.996"/><use xlink:href="#11"/></svg><svg x="5796"><use xlink:href="#a"/><use xlink:href="#b" x="62.996"/><use xlink:href="#11"/></svg><svg x="5888"><use xlink:href="#a"/><use xlink:href="#b" x="-.004" y="2.146"/><use xlink:href="#11"/></svg><svg x="5980"><use xlink:href="#a"/><use xlink:href="#b" x="2.996" y="2.146"/><use xlink:href="#11"/><use xlink:href="#12" y="2.171"/></svg><svg x="6072"><use xlink:href="#a"/><use xlink:href="#11"/><use xlink:href="#12" y="2.171"/></svg><svg x="6164"><use xlink:href="#a"/><use xlink:href="#11"/><text y="3.841" class="f">npx[..................]</text><text x="24.048" y="3.841" class="f">/</text><text x="26.052" y="3.841" class="f">rollbackFailedOptional:</text><text x="50.1" y="3.841" class="f">verb</text><text x="55.11" y="3.841" class="f">npm-session</text><text x="67.134" y="3.841" class="f">f560ae875276c39c</text></svg><svg x="6256"><use xlink:href="#a"/><use xlink:href="#11"/><text y="3.841" class="f">[..................]</text><text x="21.042" y="3.841" class="f">/</text><text x="23.046" y="3.841" class="f">rollbackFailedOptional:</text><text x="47.094" y="3.841" class="f">verb</text><text x="52.104" y="3.841" class="f">npm-session</text><text x="64.128" y="3.841" class="f">f560ae875276c39c</text></svg><svg x="6348"><use xlink:href="#a"/><use xlink:href="#11"/><text y="3.841" class="f">[..................]</text><text x="21.042" y="3.841" class="f">\</text><text x="23.046" y="3.841" class="f">fetchMetadata:</text><text x="38.076" y="3.841" class="f">sill</text><text x="43.086" y="3.841" class="f">resolveWithNewModule</text><text x="64.128" y="3.841" class="f">moment-guess@1.0.10</text><text x="84.168" y="3.841" class="f">checkin</text></svg><svg x="6440"><use xlink:href="#a"/><use xlink:href="#11"/><text y="3.841" class="f">[..................]</text><text x="21.042" y="3.841" class="f">-</text><text x="23.046" y="3.841" class="f">fetchMetadata:</text><text x="38.076" y="3.841" class="f">sill</text><text x="43.086" y="3.841" class="f">resolveWithNewModule</text><text x="64.128" y="3.841" class="f">moment-guess@1.0.10</text><text x="84.168" y="3.841" class="f">checkin</text></svg><svg x="6532"><use xlink:href="#a"/><use xlink:href="#11"/><text y="3.841" class="f">[##................]</text><text x="21.042" y="3.841" class="f">\</text><text x="23.046" y="3.841" class="f">fetchMetadata:</text><text x="38.076" y="3.841" class="f">sill</text><text x="43.086" y="3.841" class="f">resolveWithNewModule</text><text x="64.128" y="3.841" class="f">ansi-styles@4.2.1</text><text x="82.164" y="3.841" class="f">checking</text></svg><svg x="6624"><use xlink:href="#a"/><use xlink:href="#11"/><text y="3.841" class="f">[##................]</text><text x="21.042" y="3.841" class="f">/</text><text x="23.046" y="3.841" class="f">fetchMetadata:</text><text x="38.076" y="3.841" class="f">sill</text><text x="43.086" y="3.841" class="f">resolveWithNewModule</text><text x="64.128" y="3.841" class="f">@types/color-name@1.1.1</text><text x="88.176" y="3.841" class="f">che</text></svg><svg x="6716"><use xlink:href="#a"/><use xlink:href="#11"/><text y="3.841" class="f">[##................]</text><text x="21.042" y="3.841" class="f">|</text><text x="23.046" y="3.841" class="f">fetchMetadata:</text><text x="38.076" y="3.841" class="f">sill</text><text x="43.086" y="3.841" class="f">resolveWithNewModule</text><text x="64.128" y="3.841" class="f">color-name@1.1.4</text><text x="81.162" y="3.841" class="f">checking</text><text x="90.18" y="3.841" class="f">i</text></svg><svg x="6808"><use xlink:href="#a"/><use xlink:href="#11"/><text y="3.841" class="f">[#######...........]</text><text x="21.042" y="3.841" class="f">-</text><text x="23.046" y="3.841" class="f">extract:moment-guess:</text><text x="45.09" y="3.841" class="f">verb</text><text x="50.1" y="3.841" class="f">lock</text><text x="55.11" y="3.841" class="f">using</text><text x="61.122" y="3.841" class="f">/home/apoorv/.npm/_locks/stagi</text></svg><svg x="6900"><use xlink:href="#a"/><use xlink:href="#11"/><text y="3.841" class="f">[############......]</text><text x="21.042" y="3.841" class="f">/</text><text x="23.046" y="3.841" class="f">refresh-package-json:moment-guess:</text><text x="58.116" y="3.841" class="f">timing</text><text x="65.13" y="3.841" class="f">action:finalize</text><text x="81.162" y="3.841" class="f">Completed</text></svg><svg x="6992"><use xlink:href="#a"/><use xlink:href="#b" x="-.004" y="2.146"/><use xlink:href="#11"/></svg><svg x="7084"><use xlink:href="#a"/><use xlink:href="#b" x="-.004" y="4.317"/><use xlink:href="#11"/><use xlink:href="#13" y="2.171"/></svg><svg x="7176"><use xlink:href="#a"/><use xlink:href="#b" x="-.004" y="6.488"/><use xlink:href="#11"/><use xlink:href="#13" y="2.171"/><use xlink:href="#14" y="4.342"/></svg><svg x="7268"><use xlink:href="#a"/><use xlink:href="#b" x=".996" y="6.488"/><use xlink:href="#11"/><use xlink:href="#13" y="2.171"/><use xlink:href="#14" y="4.342"/><use xlink:href="#1" y="6.513"/></svg><svg x="7360"><use xlink:href="#a"/><use xlink:href="#b" x="4.996" y="6.488"/><use xlink:href="#11"/><use xlink:href="#13" y="2.171"/><use xlink:href="#14" y="4.342"/><use xlink:href="#2" y="6.513"/></svg><svg x="7452"><use xlink:href="#a"/><use xlink:href="#b" x="-.004" y="8.659"/><use xlink:href="#11"/><use xlink:href="#13" y="2.171"/><use xlink:href="#14" y="4.342"/><use xlink:href="#2" y="6.513"/></svg></svg></g></g></svg></svg>