<svg xmlns="http://www.w3.org/2000/svg" xmlns:xlink="http://www.w3.org/1999/xlink" width="2150" height="1297.47"><rect width="2150" height="1297.47" rx="5" ry="5" class="a"/><svg y="0%" x="0%"><circle cx="20" cy="20" r="6" fill="#ff5f58"/><circle cx="40" cy="20" r="6" fill="#ffbd2e"/><circle cx="60" cy="20" r="6" fill="#18c132"/></svg><svg height="1237.47" viewBox="0 0 211 123.747" width="2110" x="15" xmlns="http://www.w3.org/2000/svg" xmlns:xlink="http://www.w3.org/1999/xlink" y="50"><style>@keyframes m{0%{transform:translateX(0)}1.83%{transform:translateX(-211px)}1.86%{transform:translateX(-633px)}5.95%{transform:translateX(-844px)}6.69%{transform:translateX(-1055px)}7.29%{transform:translateX(-1266px)}8.13%{transform:translateX(-1477px)}8.97%{transform:translateX(-1688px)}9.76%{transform:translateX(-1899px)}10.6%{transform:translateX(-2110px)}11.71%{transform:translateX(-2321px)}12.46%{transform:translateX(-2532px)}13.3%{transform:translateX(-2743px)}14.09%{transform:translateX(-2954px)}14.6%{transform:translateX(-3165px)}15.11%{transform:translateX(-3376px)}16.02%{transform:translateX(-3587px)}16.7%{transform:translateX(-3798px)}17.3%{transform:translateX(-4009px)}17.77%{transform:translateX(-4220px)}18.65%{transform:translateX(-4431px)}19.54%{transform:translateX(-4642px)}20.61%{transform:translateX(-4853px)}21.5%{transform:translateX(-5064px)}22.24%{transform:translateX(-5275px)}22.75%{transform:translateX(-5486px)}23.31%{transform:translateX(-5697px)}23.96%{transform:translateX(-5908px)}24.19%{transform:translateX(-6119px)}25.22%{transform:translateX(-6330px)}26.06%{transform:translateX(-6541px)}29.04%{transform:translateX(-6752px)}31.46%{transform:translateX(-6963px)}32.34%{transform:translateX(-7174px)}33.69%{transform:translateX(-7385px)}34.72%{transform:translateX(-7596px)}37.6%{transform:translateX(-7807px)}38.44%{transform:translateX(-8018px)}38.77%{transform:translateX(-8229px)}39.75%{transform:translateX(-8440px)}40.31%{transform:translateX(-8651px)}40.86%{transform:translateX(-8862px)}41.84%{transform:translateX(-9073px)}43.75%{transform:translateX(-9284px)}45.89%{transform:translateX(-9495px)}46.68%{transform:translateX(-9706px)}48.22%{transform:translateX(-9917px)}48.83%{transform:translateX(-10128px)}49.76%{transform:translateX(-10339px)}53.11%{transform:translateX(-10550px)}53.67%{transform:translateX(-10761px)}54.23%{transform:translateX(-10972px)}54.55%{transform:translateX(-11183px)}57.16%{transform:translateX(-11394px)}58.09%{transform:translateX(-11605px)}62.24%{transform:translateX(-11816px)}62.84%{transform:translateX(-12027px)}64.48%{transform:translateX(-12238px)}65.82%{transform:translateX(-12449px)}66.57%{transform:translateX(-12660px)}68.07%{transform:translateX(-12871px)}72.2%{transform:translateX(-13082px)}74.81%{transform:translateX(-13293px)}76.67%{transform:translateX(-13504px)}78.49%{transform:translateX(-14137px)}83.55%{transform:translateX(-14348px)}83.63%{transform:translateX(-14770px)}83.66%{transform:translateX(-15192px)}to{transform:translateX(-15403px)}}.a{fill:#282d35}.f{fill:#b9c0cb;white-space:pre}.g{fill:#71bef2}.h,.i,.j{white-space:pre}.i,.j{fill:#71bef2}.j{fill:#b9bfca;font-weight:700}</style><g font-family="Monaco,Consolas,Menlo,'Bitstream Vera Sans Mono','Powerline Symbols',monospace" font-size="1.67"><defs><symbol id="1"><text y="1.67" class="f">~</text></symbol><symbol id="2"><path class="g" d="M0 0h3v2.171H0z"/><text y="1.67" class="h">~</text><text x="3.006" y="1.67" class="i"></text></symbol><symbol id="3"><path class="g" d="M0 0h3v2.171H0z"/><text y="1.67" class="h">~</text><text x="3.006" y="1.67" class="i"></text><text x="5.01" y="1.67" class="f">npx</text></symbol><symbol id="4"><path class="g" d="M0 0h3v2.171H0z"/><text y="1.67" class="h">~</text><text x="3.006" y="1.67" class="i"></text><text x="5.01" y="1.67" class="f">npx</text><text x="9.018" y="1.67" class="f">-q</text></symbol><symbol id="5"><path class="g" d="M0 0h3v2.171H0z"/><text y="1.67" class="h">~</text><text x="3.006" y="1.67" class="i"></text><text x="5.01" y="1.67" class="f">npx</text><text x="9.018" y="1.67" class="f">-q</text><text x="12.024" y="1.67" class="f">moment-guess</text></symbol><symbol id="6"><path class="g" d="M0 0h3v2.171H0z"/><text y="1.67" class="h">~</text><text x="3.006" y="1.67" class="i"></text><text x="5.01" y="1.67" class="f">npx</text><text x="9.018" y="1.67" class="f">-q</text><text x="12.024" y="1.67" class="f">moment-guess</text><text x="25.05" y="1.67" class="f">--date</text></symbol><symbol id="7"><path class="g" d="M0 0h3v2.171H0z"/><text y="1.67" class="h">~</text><text x="3.006" y="1.67" class="i"></text><text x="5.01" y="1.67" class="f">npx</text><text x="9.018" y="1.67" class="f">-q</text><text x="12.024" y="1.67" class="f">moment-guess</text><text x="25.05" y="1.67" class="f">--date</text><text x="32.064" y="1.67" class="f">&apos;Fri,</text></symbol><symbol id="8"><path class="g" d="M0 0h3v2.171H0z"/><text y="1.67" class="h">~</text><text x="3.006" y="1.67" class="i"></text><text x="5.01" y="1.67" class="f">npx</text><text x="9.018" y="1.67" class="f">-q</text><text x="12.024" y="1.67" class="f">moment-guess</text><text x="25.05" y="1.67" class="f">--date</text><text x="32.064" y="1.67" class="f">&apos;Fri,</text><text x="38.076" y="1.67" class="f">January</text></symbol><symbol id="9"><path class="g" d="M0 0h3v2.171H0z"/><text y="1.67" class="h">~</text><text x="3.006" y="1.67" class="i"></text><text x="5.01" y="1.67" class="f">npx</text><text x="9.018" y="1.67" class="f">-q</text><text x="12.024" y="1.67" class="f">moment-guess</text><text x="25.05" y="1.67" class="f">--date</text><text x="32.064" y="1.67" class="f">&apos;Fri,</text><text x="38.076" y="1.67" class="f">January</text><text x="46.092" y="1.67" class="f">30th</text></symbol><symbol id="10"><path class="g" d="M0 0h3v2.171H0z"/><text y="1.67" class="h">~</text><text x="3.006" y="1.67" class="i"></text><text x="5.01" y="1.67" class="f">npx</text><text x="9.018" y="1.67" class="f">-q</text><text x="12.024" y="1.67" class="f">moment-guess</text><text x="25.05" y="1.67" class="f">--date</text><text x="32.064" y="1.67" class="f">&apos;Fri,</text><text x="38.076" y="1.67" class="f">January</text><text x="46.092" y="1.67" class="f">30th</text><text x="51.102" y="1.67" class="f">2020,</text></symbol><symbol id="11"><path class="g" d="M0 0h3v2.171H0z"/><text y="1.67" class="h">~</text><text x="3.006" y="1.67" class="i"></text><text x="5.01" y="1.67" class="f">npx</text><text x="9.018" y="1.67" class="f">-q</text><text x="12.024" y="1.67" class="f">moment-guess</text><text x="25.05" y="1.67" class="f">--date</text><text x="32.064" y="1.67" class="f">&apos;Fri,</text><text x="38.076" y="1.67" class="f">January</text><text x="46.092" y="1.67" class="f">30th</text><text x="51.102" y="1.67" class="f">2020,</text><text x="57.114" y="1.67" class="f">10:00</text></symbol><symbol id="12"><path class="g" d="M0 0h3v2.171H0z"/><text y="1.67" class="h">~</text><text x="3.006" y="1.67" class="i"></text><text x="5.01" y="1.67" class="f">npx</text><text x="9.018" y="1.67" class="f">-q</text><text x="12.024" y="1.67" class="f">moment-guess</text><text x="25.05" y="1.67" class="f">--date</text><text x="32.064" y="1.67" class="f">&apos;Fri,</text><text x="38.076" y="1.67" class="f">January</text><text x="46.092" y="1.67" class="f">30th</text><text x="51.102" y="1.67" class="f">2020,</text><text x="57.114" y="1.67" class="f">10:00</text><text x="63.126" y="1.67" class="f">AM&apos;</text></symbol><symbol id="13"><text y="1.67" class="f">npx</text><text x="3.006" y="1.67" class="j">ddd,</text><text x="8.016" y="1.67" class="j">MMMM</text><text x="13.026" y="1.67" class="j">Do</text><text x="16.032" y="1.67" class="j">YYYY,</text><text x="22.044" y="1.67" class="j">hh:mm</text><text x="28.056" y="1.67" class="j">A</text></symbol><symbol id="a"><path fill="transparent" d="M0 0h211v57H0z"/></symbol><symbol id="b"><path fill="#6f7683" d="M0 0h1.102v2.171H0z"/></symbol></defs><path class="a" d="M0 0h211v123.747H0z"/><g style="animation-duration:17.180706s;animation-iteration-count:infinite;animation-name:m;animation-timing-function:steps(1,end)"><svg width="15614"><svg><use xlink:href="#a"/><use xlink:href="#b" x="-.004"/></svg><svg x="211"><use xlink:href="#a"/><use xlink:href="#b" x=".996"/><use xlink:href="#1"/></svg><svg x="422"><use xlink:href="#a"/><use xlink:href="#b" x="4.996"/><use xlink:href="#2"/></svg><svg x="633"><use xlink:href="#a"/><use xlink:href="#b" x="4.996"/><use xlink:href="#2"/></svg><svg x="844"><use xlink:href="#a"/><use xlink:href="#b" x="5.996"/><path class="g" d="M0 0h3v2.171H0z"/><text y="1.67" class="h">~</text><text x="3.006" y="1.67" class="i"></text><text x="5.01" y="1.67" class="f">n</text></svg><svg x="1055"><use xlink:href="#a"/><use xlink:href="#b" x="6.996"/><path class="g" d="M0 0h3v2.171H0z"/><text y="1.67" class="h">~</text><text x="3.006" y="1.67" class="i"></text><text x="5.01" y="1.67" class="f">np</text></svg><svg x="1266"><use xlink:href="#a"/><use xlink:href="#b" x="7.996"/><use xlink:href="#3"/></svg><svg x="1477"><use xlink:href="#a"/><use xlink:href="#b" x="8.996"/><use xlink:href="#3"/></svg><svg x="1688"><use xlink:href="#a"/><use xlink:href="#b" x="9.996"/><path class="g" d="M0 0h3v2.171H0z"/><text y="1.67" class="h">~</text><text x="3.006" y="1.67" class="i"></text><text x="5.01" y="1.67" class="f">npx</text><text x="9.018" y="1.67" class="f">-</text></svg><svg x="1899"><use xlink:href="#a"/><use xlink:href="#b" x="10.996"/><use xlink:href="#4"/></svg><svg x="2110"><use xlink:href="#a"/><use xlink:href="#b" x="11.996"/><use xlink:href="#4"/></svg><svg x="2321"><use xlink:href="#a"/><use xlink:href="#b" x="12.996"/><path class="g" d="M0 0h3v2.171H0z"/><text y="1.67" class="h">~</text><text x="3.006" y="1.67" class="i"></text><text x="5.01" y="1.67" class="f">npx</text><text x="9.018" y="1.67" class="f">-q</text><text x="12.024" y="1.67" class="f">m</text></svg><svg x="2532"><use xlink:href="#a"/><use xlink:href="#b" x="13.996"/><path class="g" d="M0 0h3v2.171H0z"/><text y="1.67" class="h">~</text><text x="3.006" y="1.67" class="i"></text><text x="5.01" y="1.67" class="f">npx</text><text x="9.018" y="1.67" class="f">-q</text><text x="12.024" y="1.67" class="f">mo</text></svg><svg x="2743"><use xlink:href="#a"/><use xlink:href="#b" x="14.996"/><path class="g" d="M0 0h3v2.171H0z"/><text y="1.67" class="h">~</text><text x="3.006" y="1.67" class="i"></text><text x="5.01" y="1.67" class="f">npx</text><text x="9.018" y="1.67" class="f">-q</text><text x="12.024" y="1.67" class="f">mom</text></svg><svg x="2954"><use xlink:href="#a"/><use xlink:href="#b" x="15.996"/><path class="g" d="M0 0h3v2.171H0z"/><text y="1.67" class="h">~</text><text x="3.006" y="1.67" class="i"></text><text x="5.01" y="1.67" class="f">npx</text><text x="9.018" y="1.67" class="f">-q</text><text x="12.024" y="1.67" class="f">mome</text></svg><svg x="3165"><use xlink:href="#a"/><use xlink:href="#b" x="16.996"/><path class="g" d="M0 0h3v2.171H0z"/><text y="1.67" class="h">~</text><text x="3.006" y="1.67" class="i"></text><text x="5.01" y="1.67" class="f">npx</text><text x="9.018" y="1.67" class="f">-q</text><text x="12.024" y="1.67" class="f">momen</text></svg><svg x="3376"><use xlink:href="#a"/><use xlink:href="#b" x="17.996"/><path class="g" d="M0 0h3v2.171H0z"/><text y="1.67" class="h">~</text><text x="3.006" y="1.67" class="i"></text><text x="5.01" y="1.67" class="f">npx</text><text x="9.018" y="1.67" class="f">-q</text><text x="12.024" y="1.67" class="f">moment</text></svg><svg x="3587"><use xlink:href="#a"/><use xlink:href="#b" x="18.996"/><path class="g" d="M0 0h3v2.171H0z"/><text y="1.67" class="h">~</text><text x="3.006" y="1.67" class="i"></text><text x="5.01" y="1.67" class="f">npx</text><text x="9.018" y="1.67" class="f">-q</text><text x="12.024" y="1.67" class="f">moment-</text></svg><svg x="3798"><use xlink:href="#a"/><use xlink:href="#b" x="19.996"/><path class="g" d="M0 0h3v2.171H0z"/><text y="1.67" class="h">~</text><text x="3.006" y="1.67" class="i"></text><text x="5.01" y="1.67" class="f">npx</text><text x="9.018" y="1.67" class="f">-q</text><text x="12.024" y="1.67" class="f">moment-g</text></svg><svg x="4009"><use xlink:href="#a"/><use xlink:href="#b" x="20.996"/><path class="g" d="M0 0h3v2.171H0z"/><text y="1.67" class="h">~</text><text x="3.006" y="1.67" class="i"></text><text x="5.01" y="1.67" class="f">npx</text><text x="9.018" y="1.67" class="f">-q</text><text x="12.024" y="1.67" class="f">moment-gu</text></svg><svg x="4220"><use xlink:href="#a"/><use xlink:href="#b" x="21.996"/><path class="g" d="M0 0h3v2.171H0z"/><text y="1.67" class="h">~</text><text x="3.006" y="1.67" class="i"></text><text x="5.01" y="1.67" class="f">npx</text><text x="9.018" y="1.67" class="f">-q</text><text x="12.024" y="1.67" class="f">moment-gue</text></svg><svg x="4431"><use xlink:href="#a"/><use xlink:href="#b" x="22.996"/><path class="g" d="M0 0h3v2.171H0z"/><text y="1.67" class="h">~</text><text x="3.006" y="1.67" class="i"></text><text x="5.01" y="1.67" class="f">npx</text><text x="9.018" y="1.67" class="f">-q</text><text x="12.024" y="1.67" class="f">moment-gues</text></svg><svg x="4642"><use xlink:href="#a"/><use xlink:href="#b" x="23.996"/><use xlink:href="#5"/></svg><svg x="4853"><use xlink:href="#a"/><use xlink:href="#b" x="24.996"/><use xlink:href="#5"/></svg><svg x="5064"><use xlink:href="#a"/><use xlink:href="#b" x="25.996"/><path class="g" d="M0 0h3v2.171H0z"/><text y="1.67" class="h">~</text><text x="3.006" y="1.67" class="i"></text><text x="5.01" y="1.67" class="f">npx</text><text x="9.018" y="1.67" class="f">-q</text><text x="12.024" y="1.67" class="f">moment-guess</text><text x="25.05" y="1.67" class="f">-</text></svg><svg x="5275"><use xlink:href="#a"/><use xlink:href="#b" x="26.996"/><path class="g" d="M0 0h3v2.171H0z"/><text y="1.67" class="h">~</text><text x="3.006" y="1.67" class="i"></text><text x="5.01" y="1.67" class="f">npx</text><text x="9.018" y="1.67" class="f">-q</text><text x="12.024" y="1.67" class="f">moment-guess</text><text x="25.05" y="1.67" class="f">--</text></svg><svg x="5486"><use xlink:href="#a"/><use xlink:href="#b" x="27.996"/><path class="g" d="M0 0h3v2.171H0z"/><text y="1.67" class="h">~</text><text x="3.006" y="1.67" class="i"></text><text x="5.01" y="1.67" class="f">npx</text><text x="9.018" y="1.67" class="f">-q</text><text x="12.024" y="1.67" class="f">moment-guess</text><text x="25.05" y="1.67" class="f">--d</text></svg><svg x="5697"><use xlink:href="#a"/><use xlink:href="#b" x="28.996"/><path class="g" d="M0 0h3v2.171H0z"/><text y="1.67" class="h">~</text><text x="3.006" y="1.67" class="i"></text><text x="5.01" y="1.67" class="f">npx</text><text x="9.018" y="1.67" class="f">-q</text><text x="12.024" y="1.67" class="f">moment-guess</text><text x="25.05" y="1.67" class="f">--da</text></svg><svg x="5908"><use xlink:href="#a"/><use xlink:href="#b" x="29.996"/><path class="g" d="M0 0h3v2.171H0z"/><text y="1.67" class="h">~</text><text x="3.006" y="1.67" class="i"></text><text x="5.01" y="1.67" class="f">npx</text><text x="9.018" y="1.67" class="f">-q</text><text x="12.024" y="1.67" class="f">moment-guess</text><text x="25.05" y="1.67" class="f">--dat</text></svg><svg x="6119"><use xlink:href="#a"/><use xlink:href="#b" x="30.996"/><use xlink:href="#6"/></svg><svg x="6330"><use xlink:href="#a"/><use xlink:href="#b" x="31.996"/><use xlink:href="#6"/></svg><svg x="6541"><use xlink:href="#a"/><use xlink:href="#b" x="32.996"/><path class="g" d="M0 0h3v2.171H0z"/><text y="1.67" class="h">~</text><text x="3.006" y="1.67" class="i"></text><text x="5.01" y="1.67" class="f">npx</text><text x="9.018" y="1.67" class="f">-q</text><text x="12.024" y="1.67" class="f">moment-guess</text><text x="25.05" y="1.67" class="f">--date</text><text x="32.064" y="1.67" class="f">&apos;</text></svg><svg x="6752"><use xlink:href="#a"/><use xlink:href="#b" x="33.996"/><path class="g" d="M0 0h3v2.171H0z"/><text y="1.67" class="h">~</text><text x="3.006" y="1.67" class="i"></text><text x="5.01" y="1.67" class="f">npx</text><text x="9.018" y="1.67" class="f">-q</text><text x="12.024" y="1.67" class="f">moment-guess</text><text x="25.05" y="1.67" class="f">--date</text><text x="32.064" y="1.67" class="f">&apos;F</text></svg><svg x="6963"><use xlink:href="#a"/><use xlink:href="#b" x="34.996"/><path class="g" d="M0 0h3v2.171H0z"/><text y="1.67" class="h">~</text><text x="3.006" y="1.67" class="i"></text><text x="5.01" y="1.67" class="f">npx</text><text x="9.018" y="1.67" class="f">-q</text><text x="12.024" y="1.67" class="f">moment-guess</text><text x="25.05" y="1.67" class="f">--date</text><text x="32.064" y="1.67" class="f">&apos;Fr</text></svg><svg x="7174"><use xlink:href="#a"/><use xlink:href="#b" x="35.996"/><path class="g" d="M0 0h3v2.171H0z"/><text y="1.67" class="h">~</text><text x="3.006" y="1.67" class="i"></text><text x="5.01" y="1.67" class="f">npx</text><text x="9.018" y="1.67" class="f">-q</text><text x="12.024" y="1.67" class="f">moment-guess</text><text x="25.05" y="1.67" class="f">--date</text><text x="32.064" y="1.67" class="f">&apos;Fri</text></svg><svg x="7385"><use xlink:href="#a"/><use xlink:href="#b" x="36.996"/><use xlink:href="#7"/></svg><svg x="7596"><use xlink:href="#a"/><use xlink:href="#b" x="37.996"/><use xlink:href="#7"/></svg><svg x="7807"><use xlink:href="#a"/><use xlink:href="#b" x="38.996"/><path class="g" d="M0 0h3v2.171H0z"/><text y="1.67" class="h">~</text><text x="3.006" y="1.67" class="i"></text><text x="5.01" y="1.67" class="f">npx</text><text x="9.018" y="1.67" class="f">-q</text><text x="12.024" y="1.67" class="f">moment-guess</text><text x="25.05" y="1.67" class="f">--date</text><text x="32.064" y="1.67" class="f">&apos;Fri,</text><text x="38.076" y="1.67" class="f">J</text></svg><svg x="8018"><use xlink:href="#a"/><use xlink:href="#b" x="39.996"/><path class="g" d="M0 0h3v2.171H0z"/><text y="1.67" class="h">~</text><text x="3.006" y="1.67" class="i"></text><text x="5.01" y="1.67" class="f">npx</text><text x="9.018" y="1.67" class="f">-q</text><text x="12.024" y="1.67" class="f">moment-guess</text><text x="25.05" y="1.67" class="f">--date</text><text x="32.064" y="1.67" class="f">&apos;Fri,</text><text x="38.076" y="1.67" class="f">Ja</text></svg><svg x="8229"><use xlink:href="#a"/><use xlink:href="#b" x="40.996"/><path class="g" d="M0 0h3v2.171H0z"/><text y="1.67" class="h">~</text><text x="3.006" y="1.67" class="i"></text><text x="5.01" y="1.67" class="f">npx</text><text x="9.018" y="1.67" class="f">-q</text><text x="12.024" y="1.67" class="f">moment-guess</text><text x="25.05" y="1.67" class="f">--date</text><text x="32.064" y="1.67" class="f">&apos;Fri,</text><text x="38.076" y="1.67" class="f">Jan</text></svg><svg x="8440"><use xlink:href="#a"/><use xlink:href="#b" x="41.996"/><path class="g" d="M0 0h3v2.171H0z"/><text y="1.67" class="h">~</text><text x="3.006" y="1.67" class="i"></text><text x="5.01" y="1.67" class="f">npx</text><text x="9.018" y="1.67" class="f">-q</text><text x="12.024" y="1.67" class="f">moment-guess</text><text x="25.05" y="1.67" class="f">--date</text><text x="32.064" y="1.67" class="f">&apos;Fri,</text><text x="38.076" y="1.67" class="f">Janu</text></svg><svg x="8651"><use xlink:href="#a"/><use xlink:href="#b" x="42.996"/><path class="g" d="M0 0h3v2.171H0z"/><text y="1.67" class="h">~</text><text x="3.006" y="1.67" class="i"></text><text x="5.01" y="1.67" class="f">npx</text><text x="9.018" y="1.67" class="f">-q</text><text x="12.024" y="1.67" class="f">moment-guess</text><text x="25.05" y="1.67" class="f">--date</text><text x="32.064" y="1.67" class="f">&apos;Fri,</text><text x="38.076" y="1.67" class="f">Janua</text></svg><svg x="8862"><use xlink:href="#a"/><use xlink:href="#b" x="43.996"/><path class="g" d="M0 0h3v2.171H0z"/><text y="1.67" class="h">~</text><text x="3.006" y="1.67" class="i"></text><text x="5.01" y="1.67" class="f">npx</text><text x="9.018" y="1.67" class="f">-q</text><text x="12.024" y="1.67" class="f">moment-guess</text><text x="25.05" y="1.67" class="f">--date</text><text x="32.064" y="1.67" class="f">&apos;Fri,</text><text x="38.076" y="1.67" class="f">Januar</text></svg><svg x="9073"><use xlink:href="#a"/><use xlink:href="#b" x="44.996"/><use xlink:href="#8"/></svg><svg x="9284"><use xlink:href="#a"/><use xlink:href="#b" x="45.996"/><use xlink:href="#8"/></svg><svg x="9495"><use xlink:href="#a"/><use xlink:href="#b" x="46.996"/><path class="g" d="M0 0h3v2.171H0z"/><text y="1.67" class="h">~</text><text x="3.006" y="1.67" class="i"></text><text x="5.01" y="1.67" class="f">npx</text><text x="9.018" y="1.67" class="f">-q</text><text x="12.024" y="1.67" class="f">moment-guess</text><text x="25.05" y="1.67" class="f">--date</text><text x="32.064" y="1.67" class="f">&apos;Fri,</text><text x="38.076" y="1.67" class="f">January</text><text x="46.092" y="1.67" class="f">3</text></svg><svg x="9706"><use xlink:href="#a"/><use xlink:href="#b" x="47.996"/><path class="g" d="M0 0h3v2.171H0z"/><text y="1.67" class="h">~</text><text x="3.006" y="1.67" class="i"></text><text x="5.01" y="1.67" class="f">npx</text><text x="9.018" y="1.67" class="f">-q</text><text x="12.024" y="1.67" class="f">moment-guess</text><text x="25.05" y="1.67" class="f">--date</text><text x="32.064" y="1.67" class="f">&apos;Fri,</text><text x="38.076" y="1.67" class="f">January</text><text x="46.092" y="1.67" class="f">30</text></svg><svg x="9917"><use xlink:href="#a"/><use xlink:href="#b" x="48.996"/><path class="g" d="M0 0h3v2.171H0z"/><text y="1.67" class="h">~</text><text x="3.006" y="1.67" class="i"></text><text x="5.01" y="1.67" class="f">npx</text><text x="9.018" y="1.67" class="f">-q</text><text x="12.024" y="1.67" class="f">moment-guess</text><text x="25.05" y="1.67" class="f">--date</text><text x="32.064" y="1.67" class="f">&apos;Fri,</text><text x="38.076" y="1.67" class="f">January</text><text x="46.092" y="1.67" class="f">30t</text></svg><svg x="10128"><use xlink:href="#a"/><use xlink:href="#b" x="49.996"/><use xlink:href="#9"/></svg><svg x="10339"><use xlink:href="#a"/><use xlink:href="#b" x="50.996"/><use xlink:href="#9"/></svg><svg x="10550"><use xlink:href="#a"/><use xlink:href="#b" x="51.996"/><path class="g" d="M0 0h3v2.171H0z"/><text y="1.67" class="h">~</text><text x="3.006" y="1.67" class="i"></text><text x="5.01" y="1.67" class="f">npx</text><text x="9.018" y="1.67" class="f">-q</text><text x="12.024" y="1.67" class="f">moment-guess</text><text x="25.05" y="1.67" class="f">--date</text><text x="32.064" y="1.67" class="f">&apos;Fri,</text><text x="38.076" y="1.67" class="f">January</text><text x="46.092" y="1.67" class="f">30th</text><text x="51.102" y="1.67" class="f">2</text></svg><svg x="10761"><use xlink:href="#a"/><use xlink:href="#b" x="52.996"/><path class="g" d="M0 0h3v2.171H0z"/><text y="1.67" class="h">~</text><text x="3.006" y="1.67" class="i"></text><text x="5.01" y="1.67" class="f">npx</text><text x="9.018" y="1.67" class="f">-q</text><text x="12.024" y="1.67" class="f">moment-guess</text><text x="25.05" y="1.67" class="f">--date</text><text x="32.064" y="1.67" class="f">&apos;Fri,</text><text x="38.076" y="1.67" class="f">January</text><text x="46.092" y="1.67" class="f">30th</text><text x="51.102" y="1.67" class="f">20</text></svg><svg x="10972"><use xlink:href="#a"/><use xlink:href="#b" x="53.996"/><path class="g" d="M0 0h3v2.171H0z"/><text y="1.67" class="h">~</text><text x="3.006" y="1.67" class="i"></text><text x="5.01" y="1.67" class="f">npx</text><text x="9.018" y="1.67" class="f">-q</text><text x="12.024" y="1.67" class="f">moment-guess</text><text x="25.05" y="1.67" class="f">--date</text><text x="32.064" y="1.67" class="f">&apos;Fri,</text><text x="38.076" y="1.67" class="f">January</text><text x="46.092" y="1.67" class="f">30th</text><text x="51.102" y="1.67" class="f">202</text></svg><svg x="11183"><use xlink:href="#a"/><use xlink:href="#b" x="54.996"/><path class="g" d="M0 0h3v2.171H0z"/><text y="1.67" class="h">~</text><text x="3.006" y="1.67" class="i"></text><text x="5.01" y="1.67" class="f">npx</text><text x="9.018" y="1.67" class="f">-q</text><text x="12.024" y="1.67" class="f">moment-guess</text><text x="25.05" y="1.67" class="f">--date</text><text x="32.064" y="1.67" class="f">&apos;Fri,</text><text x="38.076" y="1.67" class="f">January</text><text x="46.092" y="1.67" class="f">30th</text><text x="51.102" y="1.67" class="f">2020</text></svg><svg x="11394"><use xlink:href="#a"/><use xlink:href="#b" x="55.996"/><use xlink:href="#10"/></svg><svg x="11605"><use xlink:href="#a"/><use xlink:href="#b" x="56.996"/><use xlink:href="#10"/></svg><svg x="11816"><use xlink:href="#a"/><use xlink:href="#b" x="57.996"/><path class="g" d="M0 0h3v2.171H0z"/><text y="1.67" class="h">~</text><text x="3.006" y="1.67" class="i"></text><text x="5.01" y="1.67" class="f">npx</text><text x="9.018" y="1.67" class="f">-q</text><text x="12.024" y="1.67" class="f">moment-guess</text><text x="25.05" y="1.67" class="f">--date</text><text x="32.064" y="1.67" class="f">&apos;Fri,</text><text x="38.076" y="1.67" class="f">January</text><text x="46.092" y="1.67" class="f">30th</text><text x="51.102" y="1.67" class="f">2020,</text><text x="57.114" y="1.67" class="f">1</text></svg><svg x="12027"><use xlink:href="#a"/><use xlink:href="#b" x="58.996"/><path class="g" d="M0 0h3v2.171H0z"/><text y="1.67" class="h">~</text><text x="3.006" y="1.67" class="i"></text><text x="5.01" y="1.67" class="f">npx</text><text x="9.018" y="1.67" class="f">-q</text><text x="12.024" y="1.67" class="f">moment-guess</text><text x="25.05" y="1.67" class="f">--date</text><text x="32.064" y="1.67" class="f">&apos;Fri,</text><text x="38.076" y="1.67" class="f">January</text><text x="46.092" y="1.67" class="f">30th</text><text x="51.102" y="1.67" class="f">2020,</text><text x="57.114" y="1.67" class="f">10</text></svg><svg x="12238"><use xlink:href="#a"/><use xlink:href="#b" x="59.996"/><path class="g" d="M0 0h3v2.171H0z"/><text y="1.67" class="h">~</text><text x="3.006" y="1.67" class="i"></text><text x="5.01" y="1.67" class="f">npx</text><text x="9.018" y="1.67" class="f">-q</text><text x="12.024" y="1.67" class="f">moment-guess</text><text x="25.05" y="1.67" class="f">--date</text><text x="32.064" y="1.67" class="f">&apos;Fri,</text><text x="38.076" y="1.67" class="f">January</text><text x="46.092" y="1.67" class="f">30th</text><text x="51.102" y="1.67" class="f">2020,</text><text x="57.114" y="1.67" class="f">10:</text></svg><svg x="12449"><use xlink:href="#a"/><use xlink:href="#b" x="60.996"/><path class="g" d="M0 0h3v2.171H0z"/><text y="1.67" class="h">~</text><text x="3.006" y="1.67" class="i"></text><text x="5.01" y="1.67" class="f">npx</text><text x="9.018" y="1.67" class="f">-q</text><text x="12.024" y="1.67" class="f">moment-guess</text><text x="25.05" y="1.67" class="f">--date</text><text x="32.064" y="1.67" class="f">&apos;Fri,</text><text x="38.076" y="1.67" class="f">January</text><text x="46.092" y="1.67" class="f">30th</text><text x="51.102" y="1.67" class="f">2020,</text><text x="57.114" y="1.67" class="f">10:0</text></svg><svg x="12660"><use xlink:href="#a"/><use xlink:href="#b" x="61.996"/><use xlink:href="#11"/></svg><svg x="12871"><use xlink:href="#a"/><use xlink:href="#b" x="62.996"/><use xlink:href="#11"/></svg><svg x="13082"><use xlink:href="#a"/><use xlink:href="#b" x="63.996"/><path class="g" d="M0 0h3v2.171H0z"/><text y="1.67" class="h">~</text><text x="3.006" y="1.67" class="i"></text><text x="5.01" y="1.67" class="f">npx</text><text x="9.018" y="1.67" class="f">-q</text><text x="12.024" y="1.67" class="f">moment-guess</text><text x="25.05" y="1.67" class="f">--date</text><text x="32.064" y="1.67" class="f">&apos;Fri,</text><text x="38.076" y="1.67" class="f">January</text><text x="46.092" y="1.67" class="f">30th</text><text x="51.102" y="1.67" class="f">2020,</text><text x="57.114" y="1.67" class="f">10:00</text><text x="63.126" y="1.67" class="f">A</text></svg><svg x="13293"><use xlink:href="#a"/><use xlink:href="#b" x="64.996"/><path class="g" d="M0 0h3v2.171H0z"/><text y="1.67" class="h">~</text><text x="3.006" y="1.67" class="i"></text><text x="5.01" y="1.67" class="f">npx</text><text x="9.018" y="1.67" class="f">-q</text><text x="12.024" y="1.67" class="f">moment-guess</text><text x="25.05" y="1.67" class="f">--date</text><text x="32.064" y="1.67" class="f">&apos;Fri,</text><text x="38.076" y="1.67" class="f">January</text><text x="46.092" y="1.67" class="f">30th</text><text x="51.102" y="1.67" class="f">2020,</text><text x="57.114" y="1.67" class="f">10:00</text><text x="63.126" y="1.67" class="f">AM</text></svg><svg x="13504"><use xlink:href="#a"/><use xlink:href="#b" x="65.996"/><use xlink:href="#12"/></svg><svg x="13715"><use xlink:href="#a"/><use xlink:href="#b" x="65.996"/><use xlink:href="#12"/></svg><svg x="13926"><use xlink:href="#a"/><use xlink:href="#b" x="-.004" y="2.146"/><use xlink:href="#12"/></svg><svg x="14137"><use xlink:href="#a"/><use xlink:href="#b" x="2.996" y="2.146"/><use xlink:href="#12"/><text y="3.841" class="f">npx</text></svg><svg x="14348"><use xlink:href="#a"/><use xlink:href="#b" x="-.004" y="4.317"/><use xlink:href="#12"/><use xlink:href="#13" y="2.171"/></svg><svg x="14559"><use xlink:href="#a"/><use xlink:href="#b" x="-.004" y="4.317"/><use xlink:href="#12"/><use xlink:href="#13" y="2.171"/></svg><svg x="14770"><use xlink:href="#a"/><use xlink:href="#b" x=".996" y="4.317"/><use xlink:href="#12"/><use xlink:href="#13" y="2.171"/><use xlink:href="#1" y="4.342"/></svg><svg x="14981"><use xlink:href="#a"/><use xlink:href="#b" x="4.996" y="4.317"/><use xlink:href="#12"/><use xlink:href="#13" y="2.171"/><use xlink:href="#2" y="4.342"/></svg><svg x="15192"><use xlink:href="#a"/><use xlink:href="#b" x="4.996" y="4.317"/><use xlink:href="#12"/><use xlink:href="#13" y="2.171"/><use xlink:href="#2" y="4.342"/></svg><svg x="15403"><use xlink:href="#a"/><use xlink:href="#b" x="-.004" y="6.488"/><use xlink:href="#12"/><use xlink:href="#13" y="2.171"/><use xlink:href="#2" y="4.342"/></svg></svg></g></g></svg></svg>